# xmcd
# 
# Track frame offsets:
#     150
#     22232
#     38597
#     51880
#     63358
#     79313
#     96358
#     116184
#     132128
#     149681
# 
# Disc length: 2244
# 
# Revision: 0
# Processed by: cddbd v1.5.2PL0 Copyright (c) Steve Scherf et al.
# Submitted via: fre:ac v1.0.17
# 
DISCID=9308c20a
DTITLE=Willie Nelson - City Of New Orleans
DYEAR=1984
DGENRE=Country
TTITLE0=City Of New Orleans
TTITLE1=Just Out Of Reach
TTITLE2=Good Time Charlie's Got The Blues
TTITLE3=Why Are You Picking On Me
TTITLE4=She's Out Of My Life
TTITLE5=Cry
TTITLE6=Please Come To Boston
TTITLE7=It Turns Me Inside Out
TTITLE8=Wind Beneath My Wings
TTITLE9=Until It's Time For You To Go
EXTD=
EXTT0=
EXTT1=
EXTT2=
EXTT3=
EXTT4=
EXTT5=
EXTT6=
EXTT7=
EXTT8=
EXTT9=
PLAYORDER=
